<mxfile host="app.diagrams.net" modified="2023-12-31T16:04:09.831Z" agent="Mozilla/5.0 (Windows NT 10.0; Win64; x64) AppleWebKit/537.36 (KHTML, like Gecko) Chrome/120.0.0.0 Safari/537.36" etag="Xz9Jd8Zi1pUOHVvZaMup" version="22.1.16" type="device">
  <diagram id="C5RBs43oDa-KdzZeNtuy" name="Page-1">
    <mxGraphModel dx="1120" dy="468" grid="0" gridSize="10" guides="1" tooltips="1" connect="1" arrows="1" fold="1" page="1" pageScale="1" pageWidth="827" pageHeight="1169" math="0" shadow="0">
      <root>
        <mxCell id="WIyWlLk6GJQsqaUBKTNV-0" />
        <mxCell id="WIyWlLk6GJQsqaUBKTNV-1" parent="WIyWlLk6GJQsqaUBKTNV-0" />
        <mxCell id="ZLB3yuCh5G3PEQ4BRsmz-0" value="&lt;b&gt;&lt;font style=&quot;font-size: 14px;&quot;&gt;Start&lt;/font&gt;&lt;/b&gt;" style="ellipse;whiteSpace=wrap;html=1;fillColor=#4AFF26;" vertex="1" parent="WIyWlLk6GJQsqaUBKTNV-1">
          <mxGeometry x="187.5" y="13" width="82" height="28" as="geometry" />
        </mxCell>
        <mxCell id="ZLB3yuCh5G3PEQ4BRsmz-1" value="&lt;font style=&quot;font-size: 14px;&quot;&gt;&lt;b&gt;Select Difficulty&lt;/b&gt;&lt;/font&gt;" style="rounded=0;whiteSpace=wrap;html=1;fillColor=#9999FF;" vertex="1" parent="WIyWlLk6GJQsqaUBKTNV-1">
          <mxGeometry x="169.5" y="67" width="118" height="34" as="geometry" />
        </mxCell>
        <mxCell id="ZLB3yuCh5G3PEQ4BRsmz-2" value="&lt;font style=&quot;font-size: 14px;&quot;&gt;&lt;b&gt;Generate&amp;nbsp;&lt;/b&gt;&lt;/font&gt;&lt;span style=&quot;font-size: 14px;&quot;&gt;&lt;b&gt;Sequence&lt;/b&gt;&lt;/span&gt;" style="rounded=0;whiteSpace=wrap;html=1;fillColor=#9999FF;" vertex="1" parent="WIyWlLk6GJQsqaUBKTNV-1">
          <mxGeometry x="155" y="127" width="147" height="34" as="geometry" />
        </mxCell>
        <mxCell id="ZLB3yuCh5G3PEQ4BRsmz-3" value="&lt;span style=&quot;font-size: 14px;&quot;&gt;&lt;b&gt;Display Pattern on LEDs&lt;/b&gt;&lt;/span&gt;" style="rounded=0;whiteSpace=wrap;html=1;fillColor=#9999FF;" vertex="1" parent="WIyWlLk6GJQsqaUBKTNV-1">
          <mxGeometry x="140" y="187" width="177" height="34" as="geometry" />
        </mxCell>
        <mxCell id="ZLB3yuCh5G3PEQ4BRsmz-4" value="&lt;b&gt;&lt;font style=&quot;font-size: 14px;&quot;&gt;&lt;br&gt;if player pressed&lt;br&gt;correct sequence &lt;br&gt;of buttons&lt;/font&gt;&lt;/b&gt;" style="rhombus;whiteSpace=wrap;html=1;fillColor=#FF9933;" vertex="1" parent="WIyWlLk6GJQsqaUBKTNV-1">
          <mxGeometry x="144.5" y="243" width="167.5" height="114" as="geometry" />
        </mxCell>
        <mxCell id="ZLB3yuCh5G3PEQ4BRsmz-5" value="&lt;span style=&quot;font-size: 14px;&quot;&gt;&lt;b&gt;Display &quot;You Win&quot;&lt;/b&gt;&lt;/span&gt;" style="rounded=0;whiteSpace=wrap;html=1;fillColor=#9AC7BF;" vertex="1" parent="WIyWlLk6GJQsqaUBKTNV-1">
          <mxGeometry x="159.5" y="385" width="138" height="34" as="geometry" />
        </mxCell>
        <mxCell id="ZLB3yuCh5G3PEQ4BRsmz-6" value="&lt;span style=&quot;font-size: 14px;&quot;&gt;&lt;b&gt;Display &quot;You Lost&quot;&lt;/b&gt;&lt;/span&gt;" style="rounded=0;whiteSpace=wrap;html=1;fillColor=#9AC7BF;" vertex="1" parent="WIyWlLk6GJQsqaUBKTNV-1">
          <mxGeometry x="345" y="283" width="139.5" height="34" as="geometry" />
        </mxCell>
        <mxCell id="ZLB3yuCh5G3PEQ4BRsmz-7" value="&lt;span style=&quot;font-size: 14px;&quot;&gt;&lt;b&gt;Display &quot;Score&quot;&lt;/b&gt;&lt;/span&gt;" style="rounded=0;whiteSpace=wrap;html=1;fillColor=#9AC7BF;" vertex="1" parent="WIyWlLk6GJQsqaUBKTNV-1">
          <mxGeometry x="520" y="283" width="121" height="34" as="geometry" />
        </mxCell>
        <mxCell id="ZLB3yuCh5G3PEQ4BRsmz-9" value="" style="endArrow=classic;html=1;rounded=0;exitX=0.5;exitY=1;exitDx=0;exitDy=0;entryX=0.5;entryY=0;entryDx=0;entryDy=0;" edge="1" parent="WIyWlLk6GJQsqaUBKTNV-1" source="ZLB3yuCh5G3PEQ4BRsmz-0" target="ZLB3yuCh5G3PEQ4BRsmz-1">
          <mxGeometry width="50" height="50" relative="1" as="geometry">
            <mxPoint x="496" y="273" as="sourcePoint" />
            <mxPoint x="546" y="223" as="targetPoint" />
          </mxGeometry>
        </mxCell>
        <mxCell id="ZLB3yuCh5G3PEQ4BRsmz-10" value="" style="endArrow=classic;html=1;rounded=0;exitX=0.5;exitY=1;exitDx=0;exitDy=0;entryX=0.5;entryY=0;entryDx=0;entryDy=0;" edge="1" parent="WIyWlLk6GJQsqaUBKTNV-1" source="ZLB3yuCh5G3PEQ4BRsmz-1" target="ZLB3yuCh5G3PEQ4BRsmz-2">
          <mxGeometry width="50" height="50" relative="1" as="geometry">
            <mxPoint x="496" y="273" as="sourcePoint" />
            <mxPoint x="546" y="223" as="targetPoint" />
          </mxGeometry>
        </mxCell>
        <mxCell id="ZLB3yuCh5G3PEQ4BRsmz-11" value="" style="endArrow=classic;html=1;rounded=0;exitX=0.5;exitY=1;exitDx=0;exitDy=0;entryX=0.5;entryY=0;entryDx=0;entryDy=0;" edge="1" parent="WIyWlLk6GJQsqaUBKTNV-1" source="ZLB3yuCh5G3PEQ4BRsmz-3" target="ZLB3yuCh5G3PEQ4BRsmz-4">
          <mxGeometry width="50" height="50" relative="1" as="geometry">
            <mxPoint x="496" y="273" as="sourcePoint" />
            <mxPoint x="546" y="223" as="targetPoint" />
          </mxGeometry>
        </mxCell>
        <mxCell id="ZLB3yuCh5G3PEQ4BRsmz-12" value="" style="endArrow=classic;html=1;rounded=0;exitX=0.5;exitY=1;exitDx=0;exitDy=0;entryX=0.5;entryY=0;entryDx=0;entryDy=0;" edge="1" parent="WIyWlLk6GJQsqaUBKTNV-1" source="ZLB3yuCh5G3PEQ4BRsmz-2" target="ZLB3yuCh5G3PEQ4BRsmz-3">
          <mxGeometry width="50" height="50" relative="1" as="geometry">
            <mxPoint x="496" y="273" as="sourcePoint" />
            <mxPoint x="546" y="223" as="targetPoint" />
          </mxGeometry>
        </mxCell>
        <mxCell id="ZLB3yuCh5G3PEQ4BRsmz-13" value="" style="endArrow=classic;html=1;rounded=0;exitX=0.5;exitY=1;exitDx=0;exitDy=0;" edge="1" parent="WIyWlLk6GJQsqaUBKTNV-1" source="ZLB3yuCh5G3PEQ4BRsmz-4" target="ZLB3yuCh5G3PEQ4BRsmz-5">
          <mxGeometry width="50" height="50" relative="1" as="geometry">
            <mxPoint x="496" y="273" as="sourcePoint" />
            <mxPoint x="546" y="223" as="targetPoint" />
          </mxGeometry>
        </mxCell>
        <mxCell id="ZLB3yuCh5G3PEQ4BRsmz-15" value="" style="endArrow=classic;html=1;rounded=0;exitX=1;exitY=0.5;exitDx=0;exitDy=0;entryX=0;entryY=0.5;entryDx=0;entryDy=0;" edge="1" parent="WIyWlLk6GJQsqaUBKTNV-1" source="ZLB3yuCh5G3PEQ4BRsmz-4" target="ZLB3yuCh5G3PEQ4BRsmz-6">
          <mxGeometry width="50" height="50" relative="1" as="geometry">
            <mxPoint x="496" y="273" as="sourcePoint" />
            <mxPoint x="546" y="223" as="targetPoint" />
          </mxGeometry>
        </mxCell>
        <mxCell id="ZLB3yuCh5G3PEQ4BRsmz-16" value="" style="endArrow=classic;html=1;rounded=0;exitX=1;exitY=0.5;exitDx=0;exitDy=0;entryX=0;entryY=0.5;entryDx=0;entryDy=0;" edge="1" parent="WIyWlLk6GJQsqaUBKTNV-1" source="ZLB3yuCh5G3PEQ4BRsmz-6" target="ZLB3yuCh5G3PEQ4BRsmz-7">
          <mxGeometry width="50" height="50" relative="1" as="geometry">
            <mxPoint x="496" y="273" as="sourcePoint" />
            <mxPoint x="546" y="223" as="targetPoint" />
          </mxGeometry>
        </mxCell>
        <mxCell id="ZLB3yuCh5G3PEQ4BRsmz-17" value="" style="endArrow=classic;html=1;rounded=0;exitX=0.5;exitY=0;exitDx=0;exitDy=0;" edge="1" parent="WIyWlLk6GJQsqaUBKTNV-1" source="ZLB3yuCh5G3PEQ4BRsmz-7">
          <mxGeometry width="50" height="50" relative="1" as="geometry">
            <mxPoint x="570.9659999999999" y="283.986" as="sourcePoint" />
            <mxPoint x="229" y="51" as="targetPoint" />
            <Array as="points">
              <mxPoint x="581" y="51" />
            </Array>
          </mxGeometry>
        </mxCell>
        <mxCell id="ZLB3yuCh5G3PEQ4BRsmz-18" value="" style="endArrow=classic;html=1;rounded=0;exitX=0;exitY=0.5;exitDx=0;exitDy=0;" edge="1" parent="WIyWlLk6GJQsqaUBKTNV-1" source="ZLB3yuCh5G3PEQ4BRsmz-5">
          <mxGeometry width="50" height="50" relative="1" as="geometry">
            <mxPoint x="450" y="260" as="sourcePoint" />
            <mxPoint x="230" y="110" as="targetPoint" />
            <Array as="points">
              <mxPoint x="80" y="400" />
              <mxPoint x="80" y="110" />
            </Array>
          </mxGeometry>
        </mxCell>
        <mxCell id="ZLB3yuCh5G3PEQ4BRsmz-19" value="&lt;b&gt;&lt;font style=&quot;font-size: 14px;&quot;&gt;No&lt;/font&gt;&lt;/b&gt;" style="text;html=1;strokeColor=none;fillColor=none;align=center;verticalAlign=middle;whiteSpace=wrap;rounded=0;" vertex="1" parent="WIyWlLk6GJQsqaUBKTNV-1">
          <mxGeometry x="287.5" y="270" width="60" height="30" as="geometry" />
        </mxCell>
        <mxCell id="ZLB3yuCh5G3PEQ4BRsmz-20" value="&lt;b&gt;&lt;font style=&quot;font-size: 14px;&quot;&gt;Yes&lt;/font&gt;&lt;/b&gt;" style="text;html=1;strokeColor=none;fillColor=none;align=center;verticalAlign=middle;whiteSpace=wrap;rounded=0;" vertex="1" parent="WIyWlLk6GJQsqaUBKTNV-1">
          <mxGeometry x="220" y="350" width="60" height="30" as="geometry" />
        </mxCell>
      </root>
    </mxGraphModel>
  </diagram>
</mxfile>
